<svg xmlns="http://www.w3.org/2000/svg" xmlns:xlink="http://www.w3.org/1999/xlink" width="1440" height="864" viewBox="0 0 1440 864"><defs><style>.a,.f,.h,.n{fill:#fff;}.b{clip-path:url(#a);}.c{opacity:0.3;mix-blend-mode:luminosity;isolation:isolate;}.d,.e,.i,.o{fill:#a5b2b6;}.e,.g,.h,.j,.k,.n{fill-rule:evenodd;}.f,.j,.n{stroke:#a5b2b6;}.g{fill:#1c1c1c;}.i{stroke:rgba(0,0,0,0);stroke-miterlimit:10;}.j,.k,.m{fill:none;}.k{stroke:#707070;}.l{fill:#7d7d7d;}.o{stroke:#fff;stroke-width:0.5px;}.p{stroke:none;}</style><clipPath id="a"><rect class="a" width="1440" height="864"/></clipPath></defs><g class="b"><g transform="translate(5)"><g class="c" transform="translate(-4.357 -605.318)"><path class="d" d="M307.548,998.906,98.6,998.62a.358.358,0,0,1-.25-.61l35.659-35.659a.365.365,0,0,1,.25-.107H273.536a.34.34,0,0,1,.257.114l34.013,35.947a.358.358,0,0,1,0,.508.365.365,0,0,1-.258.093Zm-208.08-1,207.25.286-33.333-35.23H134.412L99.468,997.9ZM.716,780.6a.358.358,0,0,1-.358-.358V695.174a.358.358,0,0,1,.358-.358H19.183l52.881-52.881a.365.365,0,0,1,.251-.107H298.24a.358.358,0,0,1,.358.358v26.852a.358.358,0,0,1-.358.358H119.375L98.25,690.52H303.46l173.9-173.9a.36.36,0,1,1,.508.509l-174,174a.337.337,0,0,1-.25.107H97.383a.358.358,0,0,1-.25-.609l21.84-21.84a.365.365,0,0,1,.25-.107H297.881V642.544H72.472l-52.888,52.88a.337.337,0,0,1-.25.108H1.074v84.71a.358.358,0,0,1-.358.358ZM194.053,641.4a.358.358,0,0,1-.25-.609l30.217-30.218a.365.365,0,0,1,.25-.107H328.522L438.838,500.191a.36.36,0,1,1,.509.508L328.93,611.116a.337.337,0,0,1-.25.107H224.42l-30.11,30.11a.387.387,0,0,1-.257.1V641.4Zm-3.724-34.8h-90.08a.358.358,0,0,1-.251-.61l76.511-76.546a.365.365,0,0,1,.25-.108l182.668.788a.35.35,0,0,1,.351.365.344.344,0,0,1-.1.244L319.22,571.188a.337.337,0,0,1-.25.107H225.71l-35.087,35.2a.344.344,0,0,1-.258.107h-.036Zm-89.214-.717h89.064l35.13-35.23a.365.365,0,0,1,.25-.107h93.3L358.6,530.8l-181.651-.716-75.83,75.795Z"/><path class="e" d="M27.783,996.994H9.31a.358.358,0,0,1-.358-.358V966.92H.716a.358.358,0,0,1-.358-.358V910.709a.365.365,0,0,1,.107-.25L69.1,841.815V690.878a.358.358,0,0,1,.358-.358h234L495.622,498.436a.36.36,0,1,1,.508.509L303.868,691.135a.337.337,0,0,1-.25.108H97.534l-.25.25a.358.358,0,0,1-.51,0,.344.344,0,0,1-.1-.243H69.816V841.974a.365.365,0,0,1-.107.25L1.074,910.83v55.345H9.31a.358.358,0,0,1,.358.358v29.716H27.426l-.573-68.383a.375.375,0,0,1,.1-.251l73.655-77.2V720.952a.358.358,0,0,1,.358-.358h185.96a.358.358,0,1,1,0,.716h-185.6V850.56a.344.344,0,0,1-.1.243L27.569,928.016l.573,68.6a.358.358,0,0,1-.358.358v.021Z"/><path class="d" d="M99.39,997.782a.358.358,0,0,1-.251-.609l8.413-8.414V899.968a.365.365,0,0,1,.108-.25L286.675,720.7a.365.365,0,0,1,.509,0,.358.358,0,0,1,0,.508L108.269,900.09v88.791a.365.365,0,0,1-.108.25l-8.521,8.522a.358.358,0,0,1-.25.129Zm33.081-166.914h-.136a.358.358,0,0,1-.222-.33V747.475a.358.358,0,0,1,.358-.358h83.78a.358.358,0,0,1,.25.616L132.722,830.8a.344.344,0,0,1-.25.072Zm.358-83.063v81.846L215.384,747.8H132.83Z"/><path class="d" d="M439.59,998.906H307.548a.358.358,0,0,1,0-.716H439.232V966.54a.358.358,0,0,1,.358-.358h40.1a.358.358,0,0,1,0,.716H439.948v31.65A.358.358,0,0,1,439.59,998.906Zm-19.978-19.835H326.524a.337.337,0,0,1-.25-.107l-47.518-47.511H158.966a.358.358,0,0,1-.25-.616l24.954-24.525V861.28a.365.365,0,0,1,.107-.25l64.446-64.446a.365.365,0,0,1,.25-.108h45.542a.358.358,0,0,1,0,.716H248.624l-64.238,64.231V905.6l28.642-28.184L326.954,765.356l54.42-53.561,62.3-61.295a.358.358,0,0,1,.508,0,.342.342,0,0,1,.1.244l1.433,118.006,19.233,19.234a.365.365,0,0,1,.107.25V942.9a.358.358,0,0,1-.358.358H419.97v35.445a.365.365,0,0,1-.358.35v.015Zm-92.938-.716h92.58V942.91a.358.358,0,0,1,.358-.358h44.754V788.384L445.14,769.158a.364.364,0,0,1-.108-.251L443.6,651.617l-61.7,60.707-54.42,53.561L213.558,877.95l-29.28,28.778-24.439,24.024H278.906a.358.358,0,0,1,.25.108l47.518,47.5ZM.716,880.276a.358.358,0,0,1-.358-.358V695.174a.358.358,0,0,1,.358-.358h49.05a.358.358,0,0,1,.358.358V830.868a.365.365,0,0,1-.107.25L.967,880.168a.337.337,0,0,1-.25.108Zm.358-184.744v183.52l48.334-48.335V695.532Z"/><path class="e" d="M464.724,914.217a.337.337,0,0,1-.25-.107L443.564,893.2a.365.365,0,0,1-.107-.25V796.977l-16.4-16.4v78.552a.35.35,0,0,1-.365.35.344.344,0,0,1-.243-.1l-45.04-45.04a.365.365,0,0,1-.108-.25V712.073a.358.358,0,1,1,.716,0V813.962l44.324,44.324V779.74a.35.35,0,0,1,.365-.35.337.337,0,0,1,.244.1L444.066,796.6a.365.365,0,0,1,.107.25v95.953l20.8,20.8a.358.358,0,0,1,0,.508.344.344,0,0,1-.244.1h-.007ZM254.2,878.056H213.315a.358.358,0,0,1,0-.716h40.737l72.759-72.759V765.635a.358.358,0,0,1,.716,0v39.1a.365.365,0,0,1-.108.25l-72.966,72.967a.337.337,0,0,1-.251.107Z"/><path class="d" d="M419.612,979.093a.358.358,0,0,1-.358-.358V942.93a.358.358,0,0,1,.716,0v35.8a.358.358,0,0,1-.358.358Zm-17.9-10.741H375.932a.358.358,0,0,1-.358-.358V942.215a.358.358,0,0,1,.358-.358h25.779a.358.358,0,0,1,.358.358v25.779A.358.358,0,0,1,401.711,968.352Zm-25.42-.716h25.062V942.573H376.29v25.063Zm88.433-24.275a.358.358,0,0,1-.358-.358V914.01L443.6,893.244a.358.358,0,0,1,0-.508.365.365,0,0,1,.509,0l20.909,20.909a.365.365,0,0,1,.107.25v29.144a.358.358,0,0,1-.358.358Z"/><path class="e" d="M507.974,996.994H489.5a.358.358,0,0,1-.358-.358V966.92h-8.235a.358.358,0,0,1-.358-.358V910.709a.365.365,0,0,1,.107-.25l68.635-68.635V690.878a.358.358,0,0,1,.358-.358h234L975.812,498.436a.365.365,0,0,1,.508,0,.358.358,0,0,1,0,.509L784.087,691.135a.337.337,0,0,1-.251.108H577.726l-.25.25a.358.358,0,0,1-.51,0,.344.344,0,0,1-.1-.243H550.007V841.974a.365.365,0,0,1-.107.25L481.265,910.83v55.345H489.5a.358.358,0,0,1,.358.358v29.716h17.758l-.573-68.383a.374.374,0,0,1,.1-.251l73.655-77.2V720.952a.358.358,0,0,1,.358-.358h185.96a.358.358,0,1,1,0,.716h-185.6V850.56a.344.344,0,0,1-.1.243L507.76,928.016l.573,68.6a.358.358,0,0,1-.358.358v.021Z"/><path class="d" d="M579.58,997.782a.358.358,0,0,1-.25-.609l8.413-8.414V899.968a.365.365,0,0,1,.108-.25L766.866,720.7a.365.365,0,0,1,.509,0,.358.358,0,0,1,0,.508L588.459,900.09v88.791a.365.365,0,0,1-.107.25l-8.521,8.522a.358.358,0,0,1-.25.129Zm33.082-166.914h-.136a.358.358,0,0,1-.222-.33V747.475a.358.358,0,0,1,.358-.358h83.78a.358.358,0,0,1,.25.616L612.913,830.8a.344.344,0,0,1-.25.072Zm.358-83.063v81.846L695.575,747.8H613.02Z"/><path class="d" d="M919.781,998.906H787.74a.358.358,0,0,1,0-.716H919.424V966.54a.358.358,0,0,1,.358-.358h40.1a.358.358,0,0,1,0,.716H920.14v31.65a.358.358,0,0,1-.358.358ZM899.8,979.071H806.715a.337.337,0,0,1-.25-.107l-47.511-47.511h-119.8a.358.358,0,0,1-.251-.616l24.955-24.525V861.28a.365.365,0,0,1,.107-.25l64.446-64.446a.365.365,0,0,1,.25-.108h45.542a.358.358,0,0,1,0,.716H728.815l-64.238,64.231V905.6l28.642-28.184L807.145,765.356l54.42-53.561,62.3-61.295a.358.358,0,0,1,.508,0,.342.342,0,0,1,.1.244L925.9,768.75l19.233,19.234a.365.365,0,0,1,.107.25V942.9a.358.358,0,0,1-.358.358H900.132v35.445a.35.35,0,0,1-.329.35v.015Zm-92.938-.716h92.58V942.91a.358.358,0,0,1,.358-.358h44.754V788.384l-19.226-19.226a.365.365,0,0,1-.108-.251l-1.432-117.312L862.1,712.3l-54.42,53.562L693.749,877.927l-29.244,28.808-24.439,24.023H759.1a.367.367,0,0,1,.25.108Z"/><path class="e" d="M480.907,880.276a.358.358,0,0,1-.358-.358V780.242a.358.358,0,0,1,.716,0v98.817L529.6,830.725V695.532H480.907a.358.358,0,1,1,0-.716h49.05a.358.358,0,0,1,.358.358V830.868a.365.365,0,0,1-.107.25l-49.05,49.05a.337.337,0,0,1-.251.108Zm464.008,33.941a.337.337,0,0,1-.25-.107L923.755,893.2a.365.365,0,0,1-.107-.25V796.977l-16.4-16.4v78.552a.35.35,0,0,1-.365.35.344.344,0,0,1-.244-.1l-45.04-45.04a.365.365,0,0,1-.107-.25V712.073a.358.358,0,0,1,.716,0V813.962l44.324,44.324V779.74a.35.35,0,0,1,.365-.35.339.339,0,0,1,.244.1L924.257,796.6a.365.365,0,0,1,.107.25v95.953l20.766,20.8a.358.358,0,0,1,0,.508.344.344,0,0,1-.244.1h.029ZM734.393,878.056H693.506a.358.358,0,0,1,0-.716h40.736L807,804.581V765.635a.358.358,0,0,1,.716,0v39.1a.365.365,0,0,1-.108.25l-72.93,72.967A.337.337,0,0,1,734.393,878.056Z"/><path class="d" d="M899.8,979.093a.358.358,0,0,1-.358-.358V942.93a.358.358,0,0,1,.716,0v35.8a.358.358,0,0,1-.358.358Zm-17.9-10.741H856.123a.358.358,0,0,1-.358-.358V942.215a.358.358,0,0,1,.358-.358H881.9a.358.358,0,0,1,.358.358v25.779A.358.358,0,0,1,881.9,968.352Zm-25.42-.716h25.062V942.573H856.48v25.063Zm88.433-24.275a.358.358,0,0,1-.358-.358V913.86a.358.358,0,0,1,.716,0V943a.358.358,0,0,1-.358.358Z"/><path class="e" d="M986.876,996.994H968.4a.358.358,0,0,1-.358-.358V966.92h-8.235a.358.358,0,0,1-.358-.358V910.709a.365.365,0,0,1,.107-.25l68.635-68.635V690.878a.358.358,0,0,1,.358-.358H1262.7a.358.358,0,1,1,0,.716H1056.628l-.25.25a.358.358,0,0,1-.51,0,.344.344,0,0,1-.1-.243h-26.852v150.73a.365.365,0,0,1-.107.252l-68.635,68.6v55.352h8.235a.358.358,0,0,1,.358.358v29.717h17.758l-.573-68.384a.372.372,0,0,1,.1-.25l73.648-77.228V720.93a.358.358,0,0,1,.358-.358h185.96a.358.358,0,1,1,0,.716h-185.6V850.537a.344.344,0,0,1-.1.244l-73.655,77.234.573,68.6a.358.358,0,0,1-.358.358v.021Z"/><path class="d" d="M1058.482,997.782a.358.358,0,0,1-.25-.609l8.413-8.414V899.968a.365.365,0,0,1,.108-.25L1245.768,720.7a.365.365,0,0,1,.509,0,.358.358,0,0,1,0,.508L1067.362,900.09v88.791a.364.364,0,0,1-.108.25l-8.521,8.522a.358.358,0,0,1-.25.129Zm33.082-166.914h-.136a.358.358,0,0,1-.222-.33V747.475a.358.358,0,0,1,.358-.358h83.78a.358.358,0,0,1,.25.616L1091.815,830.8a.344.344,0,0,1-.25.072Zm.358-83.063v81.846l82.555-81.846Z"/><path class="d" d="M1398.683,998.906H1266.641a.358.358,0,1,1,0-.716h131.684V966.54a.358.358,0,0,1,.358-.358h40.1a.358.358,0,0,1,0,.716h-39.742v31.65a.358.358,0,0,1-.358.358ZM1378.7,979.071h-93.088a.337.337,0,0,1-.25-.107l-47.511-47.511h-119.8a.358.358,0,0,1-.25-.616l24.954-24.525V861.28a.364.364,0,0,1,.107-.25l64.446-64.446a.365.365,0,0,1,.25-.108h45.542a.358.358,0,0,1,0,.716h-45.391l-64.238,64.231V905.6l28.642-28.184,113.926-112.064,54.42-53.561,62.3-61.295a.358.358,0,0,1,.508,0,.343.343,0,0,1,.1.244l1.433,118.006,19.233,19.234a.365.365,0,0,1,.107.25V942.9a.358.358,0,0,1-.358.358h-44.753v35.445a.35.35,0,0,1-.33.35v.015Zm-92.938-.716h92.58V942.91a.358.358,0,0,1,.358-.358h44.754V788.384l-19.226-19.226a.364.364,0,0,1-.108-.251l-1.432-117.312L1341,712.3l-54.42,53.562L1172.651,877.927,1143.379,906.7l-24.425,24H1238a.358.358,0,0,1,.25.108l47.518,47.546Z"/><path class="e" d="M959.81,880.276a.358.358,0,0,1-.359-.358V780.242a.358.358,0,0,1,.716,0v98.817l48.334-48.334V695.532H959.81a.358.358,0,0,1,0-.716h49.05a.358.358,0,0,1,.358.358V830.868a.365.365,0,0,1-.107.25l-49.05,49.05a.337.337,0,0,1-.25.108Zm464.007-91.656a.337.337,0,0,1-.25-.107l-19.334-19.334a.358.358,0,0,1,0-.508.365.365,0,0,1,.508,0L1424.075,788a.358.358,0,0,1,0,.509.344.344,0,0,1-.244.1Zm0,125.6a.337.337,0,0,1-.25-.107l-20.91-20.909a.365.365,0,0,1-.107-.25V796.977l-16.4-16.4v78.552a.35.35,0,0,1-.365.35.344.344,0,0,1-.243-.1l-45.04-45.04a.365.365,0,0,1-.108-.25V712.073a.358.358,0,0,1,.716,0V813.962l44.324,44.324V779.74a.35.35,0,0,1,.365-.35.337.337,0,0,1,.244.1l17.114,17.113a.364.364,0,0,1,.107.25v95.953l20.766,20.8a.358.358,0,0,1,0,.508.344.344,0,0,1-.244.1h.029ZM1213.3,878.056h-40.887a.358.358,0,1,1,0-.716h40.737l72.759-72.759V765.635a.358.358,0,0,1,.716,0v39.1a.364.364,0,0,1-.108.25l-72.966,72.967a.337.337,0,0,1-.251.107Z"/><path class="d" d="M1378.7,979.093a.358.358,0,0,1-.358-.358V942.93a.358.358,0,1,1,.716,0v35.8a.358.358,0,0,1-.358.358Zm-17.9-10.741h-25.779a.358.358,0,0,1-.358-.358V942.215a.358.358,0,0,1,.358-.358H1360.8a.358.358,0,0,1,.358.358v25.779A.358.358,0,0,1,1360.8,968.352Zm-25.42-.716h25.062V942.573h-25.063v25.063Zm88.433-24.275a.358.358,0,0,1-.358-.358V914.01l-20.8-20.766a.358.358,0,0,1,0-.508.365.365,0,0,1,.509,0l20.909,20.909a.365.365,0,0,1,.107.25v29.144a.358.358,0,0,1-.358.358l-.007-.036Zm-20.909-146.148a.337.337,0,0,1-.25-.107l-17.114-17.114a.358.358,0,0,1,0-.509.365.365,0,0,1,.508,0l17.114,17.114a.358.358,0,0,1,0,.509.344.344,0,0,1-.244.1Z"/><path class="d" d="M1.074,1278.886a.358.358,0,0,1-.358-.358V1193.46a.358.358,0,0,1,.358-.358H19.541l52.881-52.881a.365.365,0,0,1,.251-.108H298.6a.358.358,0,0,1,.358.358v26.853a.358.358,0,0,1-.358.358H119.733l-21.124,21.124H303.818l173.9-173.9a.36.36,0,1,1,.508.508l-174,174a.337.337,0,0,1-.25.108H97.75a.358.358,0,0,1-.251-.609l21.84-21.84a.364.364,0,0,1,.25-.107h178.65v-26.144H72.832l-52.889,52.882a.337.337,0,0,1-.25.107H1.432v84.71A.358.358,0,0,1,1.074,1278.886Zm193.337-139.2a.358.358,0,0,1-.25-.609l30.217-30.218a.365.365,0,0,1,.25-.107H328.88L439.2,998.44a.36.36,0,1,1,.509.509L329.288,1109.366a.337.337,0,0,1-.25.107H224.778l-30.11,30.075a.386.386,0,0,1-.257.1v.036Zm-3.724-34.8h-90.08a.358.358,0,0,1-.251-.61l76.511-76.532a.365.365,0,0,1,.25-.108l182.668.788a.35.35,0,0,1,.351.365.344.344,0,0,1-.1.244l-40.458,40.457a.337.337,0,0,1-.25.108h-93.26l-35.087,35.194a.343.343,0,0,1-.258.107l-.036-.014Zm-89.214-.717h89.064l35.13-35.23a.366.366,0,0,1,.25-.108h93.3l39.742-39.741-181.651-.752-75.83,75.831Z"/><path class="e" d="M28.141,1495.294H9.667a.358.358,0,0,1-.358-.358V1465.22H1.074a.358.358,0,0,1-.358-.358v-55.853a.365.365,0,0,1,.107-.25l68.635-68.642v-150.94a.357.357,0,0,1,.358-.357h234L495.98,996.758a.36.36,0,1,1,.509.508L304.226,1189.457a.337.337,0,0,1-.25.108H97.892l-.25.25a.358.358,0,0,1-.51,0,.344.344,0,0,1-.1-.243H70.175V1340.3a.365.365,0,0,1-.107.25L1.432,1409.16v55.345H9.667a.358.358,0,0,1,.358.358v29.716H27.783l-.573-68.384a.363.363,0,0,1,.1-.25l73.655-77.228V1219.254a.359.359,0,0,1,.358-.359h185.96a.359.359,0,0,1,0,.717h-185.6v129.249a.344.344,0,0,1-.1.243l-73.655,77.235.573,68.6a.358.358,0,0,1-.358.358Z"/><path class="e" d="M316.857,1219.61H287.284a.358.358,0,1,1,0-.716h29.423l163.054-163.011a.36.36,0,0,1,.509.508l-163.19,163.12a.358.358,0,0,1-.223.1Z"/><path class="d" d="M439.948,1497.228H307.907a.358.358,0,1,1,0-.716H439.59v-31.65a.358.358,0,0,1,.358-.358h40.1a.358.358,0,0,1,0,.716H440.306v31.65A.358.358,0,0,1,439.948,1497.228Zm-19.978-19.835H326.882a.364.364,0,0,1-.25-.108l-47.518-47.51H159.324a.358.358,0,0,1-.25-.616l24.954-24.525V1359.6a.365.365,0,0,1,.107-.251l64.446-64.446a.365.365,0,0,1,.25-.107h45.542a.358.358,0,0,1,0,.716H248.982l-64.238,64.238v44.181l28.642-28.184,113.926-112.064,54.42-53.561,62.3-61.3a.358.358,0,0,1,.508,0,.34.34,0,0,1,.1.243l1.433,118.007,19.233,19.234a.365.365,0,0,1,.107.25v154.67a.358.358,0,0,1-.358.358H420.328v35.445a.365.365,0,0,1-.358.35v.008Zm-92.937-.716h92.58v-35.445a.357.357,0,0,1,.357-.358h44.754V1286.713L445.5,1267.486a.365.365,0,0,1-.108-.25l-1.432-117.313-61.7,60.708-54.42,53.562L213.916,1376.271l-29.28,28.778L160.2,1429.073H279.264a.361.361,0,0,1,.25.107l47.519,47.5Zm-325.959-98.1a.358.358,0,0,1-.358-.358V1193.474a.358.358,0,0,1,.358-.358h49.05a.358.358,0,0,1,.358.358v135.694a.365.365,0,0,1-.107.25l-49.05,49.05a.337.337,0,0,1-.25.108Zm.358-184.744v183.52l48.334-48.342V1193.832Z"/><path class="e" d="M156.46,1082.055H123.449a.358.358,0,1,1,0-.716h32.86l34.88-34.908a.365.365,0,0,1,.25-.107h50.046l17.293-17.293a.36.36,0,0,1,.508.508l-17.4,17.4a.337.337,0,0,1-.251.108h-50.01l-34.908,34.922a.387.387,0,0,1-.258.086Z"/><path class="d" d="M1.074,1145.14a.358.358,0,0,1-.358-.358V1028.064a.358.358,0,0,1,.358-.358h116a.35.35,0,0,1,.351.365.344.344,0,0,1-.1.244l-116,116.718a.337.337,0,0,1-.25.107Zm.358-116.718v115.494l114.785-115.494Z"/><path class="d" d="M28.284,1055.632h-17.9a.358.358,0,0,1-.358-.358v-17.9a.358.358,0,0,1,.358-.358h17.9a.358.358,0,0,1,.358.358v17.9A.358.358,0,0,1,28.284,1055.632Zm-17.543-.716H27.926v-17.185H10.741v17.185Z"/><path class="e" d="M508.332,1495.294H489.858a.358.358,0,0,1-.358-.358V1465.22h-8.235a.358.358,0,0,1-.358-.358v-55.853a.365.365,0,0,1,.107-.25l68.635-68.635V1189.178a.358.358,0,0,1,.358-.358h234L976.17,996.758a.36.36,0,1,1,.508.508L784.416,1189.457a.337.337,0,0,1-.25.108H578.083l-.25.25a.358.358,0,0,1-.51,0,.344.344,0,0,1-.1-.243H550.364V1340.3a.365.365,0,0,1-.107.25l-68.635,68.642v55.344h8.235a.358.358,0,0,1,.358.358v29.717h17.758l-.573-68.384a.363.363,0,0,1,.1-.25l73.655-77.257V1219.253a.358.358,0,0,1,.358-.359h185.96a.359.359,0,0,1,0,.717h-185.6V1348.86a.344.344,0,0,1-.1.243l-73.655,77.235.573,68.6a.358.358,0,0,1-.358.358Z"/><path class="e" d="M797.048,1219.61H767.475a.358.358,0,0,1,0-.716H796.9l163.09-163.011a.36.36,0,0,1,.508.508l-163.19,163.12a.387.387,0,0,1-.258.1Z"/><path class="d" d="M920.14,1497.228H788.1a.358.358,0,1,1,0-.716H919.78v-31.65a.358.358,0,0,1,.358-.358h40.1a.358.358,0,0,1,0,.716H920.5v31.65a.358.358,0,0,1-.358.358Zm-19.979-19.835H807.073a.364.364,0,0,1-.25-.108l-47.511-47.51h-119.8a.358.358,0,0,1-.251-.616l24.955-24.525V1359.6a.365.365,0,0,1,.107-.251l64.446-64.446a.365.365,0,0,1,.25-.107h45.542a.358.358,0,0,1,0,.716H729.173l-64.238,64.238v44.181l28.642-28.184L807.5,1263.683l54.42-53.561,62.3-61.3a.358.358,0,0,1,.508,0,.34.34,0,0,1,.1.243l1.433,118.007,19.233,19.234a.365.365,0,0,1,.107.25v154.67a.358.358,0,0,1-.358.358H900.491v35.445a.35.35,0,0,1-.33.35v.008Zm-92.938-.716H899.8v-35.445a.358.358,0,0,1,.358-.358h44.754V1286.713l-19.226-19.227a.364.364,0,0,1-.108-.25l-1.432-117.313-61.7,60.708-54.42,53.562L694.107,1376.271l-29.28,28.778-24.439,24.024H759.455a.361.361,0,0,1,.25.107Z"/><path class="e" d="M481.265,1378.576a.358.358,0,0,1-.358-.358v-99.676a.358.358,0,1,1,.716,0v98.817l48.334-48.334V1193.832H481.265a.358.358,0,1,1,0-.716h49.05a.358.358,0,0,1,.358.358v135.694a.365.365,0,0,1-.107.25l-49.05,49.05a.337.337,0,0,1-.251.108ZM636.65,1082.055H603.64a.358.358,0,1,1,0-.716H636.5l34.908-34.908a.365.365,0,0,1,.25-.107H721.7l17.272-17.293a.36.36,0,0,1,.508.508l-17.4,17.4a.337.337,0,0,1-.25.108H671.816l-34.908,34.922a.387.387,0,0,1-.258.086Z"/><path class="d" d="M481.265,1145.14a.358.358,0,0,1-.358-.358V1028.064a.358.358,0,0,1,.358-.358h116a.35.35,0,0,1,.35.365.344.344,0,0,1-.1.244l-116,116.718a.337.337,0,0,1-.251.107Zm.358-116.718v115.494l114.785-115.494H481.623Z"/><path class="d" d="M508.475,1055.632h-17.9a.358.358,0,0,1-.358-.358v-17.9a.358.358,0,0,1,.358-.358h17.9a.358.358,0,0,1,.358.358v17.9A.358.358,0,0,1,508.475,1055.632Zm-17.543-.716h17.185v-17.185H490.932Z"/><path class="e" d="M987.234,1495.294H968.76a.358.358,0,0,1-.358-.358V1465.22h-8.235a.358.358,0,0,1-.358-.358v-55.853a.365.365,0,0,1,.107-.25l68.635-68.635V1189.178a.358.358,0,0,1,.358-.358h234.152a.358.358,0,1,1,0,.716H1056.986l-.25.25a.358.358,0,0,1-.51,0,.344.344,0,0,1-.1-.243h-26.852v150.731a.364.364,0,0,1-.107.25l-68.635,68.635v55.352h8.235a.358.358,0,0,1,.358.358v29.716h17.758l-.573-68.384a.363.363,0,0,1,.1-.25l73.648-77.227V1219.26a.358.358,0,0,1,.358-.358h185.96a.358.358,0,1,1,0,.716h-185.6v129.249a.343.343,0,0,1-.1.243l-73.655,77.228.573,68.6a.358.358,0,0,1-.358.358Z"/><path class="e" d="M1275.95,1219.61h-29.573a.358.358,0,0,1,0-.716H1275.8l163.09-163.011a.36.36,0,0,1,.509.508l-163.19,163.12a.387.387,0,0,1-.259.1Z"/><path class="d" d="M1399.041,1497.228H1267a.358.358,0,1,1,0-.716h131.684v-31.65a.358.358,0,0,1,.358-.358h40.1a.358.358,0,1,1,0,.716H1399.4v31.65a.358.358,0,0,1-.358.358Zm-19.978-19.835h-93.088a.364.364,0,0,1-.25-.108l-47.511-47.51h-119.8a.358.358,0,0,1-.25-.616l24.954-24.525V1359.6a.365.365,0,0,1,.107-.251l64.446-64.446a.365.365,0,0,1,.25-.107h45.542a.358.358,0,0,1,0,.716h-45.391l-64.238,64.238v44.181l28.642-28.184,113.926-112.064,54.42-53.561,62.3-61.3a.358.358,0,0,1,.508,0,.34.34,0,0,1,.1.243l1.433,118.007,19.233,19.234a.365.365,0,0,1,.107.25v154.67a.358.358,0,0,1-.358.358h-44.753v35.445a.35.35,0,0,1-.33.35v.008Zm-92.937-.716h92.58v-35.445a.357.357,0,0,1,.357-.358h44.754V1286.713l-19.226-19.227a.366.366,0,0,1-.108-.25l-1.432-117.313-61.7,60.708-54.42,53.562-113.926,112.078-29.272,28.77-24.425,24h119.045a.358.358,0,0,1,.25.108l47.519,47.525Z"/><path class="e" d="M960.167,1378.576a.358.358,0,0,1-.358-.358v-99.676a.358.358,0,1,1,.716,0v98.817l48.334-48.334V1193.832H960.167a.358.358,0,0,1,0-.716h49.05a.358.358,0,0,1,.358.358v135.694a.365.365,0,0,1-.107.25l-49.05,49.05a.337.337,0,0,1-.25.108Zm155.385-296.521h-33.01a.358.358,0,1,1,0-.716h32.86l34.908-34.908a.365.365,0,0,1,.25-.107h50.046l17.293-17.293a.36.36,0,0,1,.509.508l-17.4,17.4a.337.337,0,0,1-.251.108h-50.046l-34.908,34.922a.36.36,0,0,1-.25.086Z"/><path class="d" d="M960.167,1145.14a.358.358,0,0,1-.358-.358V1028.064a.358.358,0,0,1,.358-.358h116a.35.35,0,0,1,.35.365.344.344,0,0,1-.1.244l-116,116.718a.337.337,0,0,1-.25.107Zm.358-116.718v115.494l114.785-115.494H960.525Z"/><path class="d" d="M987.377,1055.632h-17.9a.358.358,0,0,1-.358-.358v-17.9a.358.358,0,0,1,.358-.358h17.9a.358.358,0,0,1,.358.358v17.9A.358.358,0,0,1,987.377,1055.632Zm-17.543-.716h17.185v-17.185H969.834Z"/></g><g transform="translate(0 3)"><g transform="translate(0 -19)"><g transform="translate(236 255)"><g transform="translate(935 155)"><g class="f"><circle class="p" cx="29.5" cy="29.5" r="29.5"/><circle class="m" cx="29.5" cy="29.5" r="29"/></g></g><g transform="translate(949.001 168.998)"><g transform="translate(0 0.002)"><path class="d" d="M3.728,30.335A3.791,3.791,0,0,1,0,26.542V3.727A3.775,3.775,0,0,1,3.728,0H26.605a3.68,3.68,0,0,1,3.665,3.727V26.6a3.737,3.737,0,0,1-3.729,3.73ZM1.2,3.727V26.6a2.534,2.534,0,0,0,2.525,2.528H26.542A2.537,2.537,0,0,0,29.071,26.6V3.727A2.539,2.539,0,0,0,26.542,1.2H3.728A2.536,2.536,0,0,0,1.2,3.727ZM4.422,26.6a.632.632,0,0,1-.629-.63V23.256h-.95a.633.633,0,0,1-.631-.634V18.768a.636.636,0,0,1,.631-.634h.95V12.2h-.95a.633.633,0,0,1-.631-.634V7.708a.633.633,0,0,1,.631-.63h.885V4.36a.636.636,0,0,1,.633-.634H25.975a.682.682,0,0,1,.631.634V25.974a.633.633,0,0,1-.631.63Zm.569-1.264H25.34V4.991H4.991V7.078h.95a.675.675,0,0,1,.631.63v3.854a.636.636,0,0,1-.631.634h-.95v5.938h.95a.633.633,0,0,1,.631.634v3.854a.636.636,0,0,1-.631.634h-.95ZM3.476,21.992H5.37V19.4H3.476Zm0-11.06H5.37V8.342H3.476ZM13.9,15.166a5.183,5.183,0,1,1,5.185,5.184A5.2,5.2,0,0,1,13.9,15.166Zm1.265,0a3.918,3.918,0,1,0,3.92-3.916A3.9,3.9,0,0,0,15.166,15.166Zm1.52,0a2.37,2.37,0,1,1,4.739,0,2.349,2.349,0,0,1-2.339,2.4A2.4,2.4,0,0,1,16.686,15.166Zm1.264,0a1.137,1.137,0,1,0,1.137-1.137A1.128,1.128,0,0,0,17.949,15.166Z" transform="translate(0 0)"/></g></g></g><g transform="translate(-1044 109)"><g transform="translate(1241 301)"><g class="f"><circle class="p" cx="29.5" cy="29.5" r="29.5"/><circle class="m" cx="29.5" cy="29.5" r="29"/></g></g><g transform="translate(960.986 287.871)"><path class="g" d="M309.685,50.8a6.135,6.135,0,1,1-7.072,0V26.618a3.623,3.623,0,0,1,6.033-2.572,3.792,3.792,0,0,1,1.039,2.572V50.8Zm1.066,2.508a5.238,5.238,0,0,0-1.757-1.9l-.207-.134V26.618a2.852,2.852,0,0,0-.766-1.93,2.631,2.631,0,0,0-1.918-.661,2.59,2.59,0,0,0-2.591,2.591V51.28l-.207.134a5.237,5.237,0,1,0,7.446,1.9Z" transform="translate(0 0)"/><path class="h" d="M304.366,39.02V26.81a3.04,3.04,0,0,1,3.041-3.04,2.941,2.941,0,0,1,3.133,3.04V39.02Z" transform="translate(-1.304 -0.192)"/><path class="g" d="M303.725,38.828V26.618a3.623,3.623,0,0,1,6.033-2.572,3.791,3.791,0,0,1,1.039,2.572V39.277h-7.072v-.449Zm.9-12.21V38.379H309.9V26.618a2.852,2.852,0,0,0-.766-1.93,2.632,2.632,0,0,0-1.919-.661,2.59,2.59,0,0,0-2.59,2.591Z" transform="translate(-1.112 0)"/><path class="e" d="M309.685,50.8a6.135,6.135,0,1,1-7.072,0V26.618a3.623,3.623,0,0,1,6.033-2.572,3.792,3.792,0,0,1,1.039,2.572V50.8Zm1.066,2.508a5.238,5.238,0,0,0-1.757-1.9l-.207-.134V26.618a2.852,2.852,0,0,0-.766-1.93,2.631,2.631,0,0,0-1.918-.661,2.59,2.59,0,0,0-2.591,2.591V51.28l-.207.134a5.237,5.237,0,1,0,7.446,1.9Z" transform="translate(0 0)"/><path class="e" d="M304.174,45.8a.449.449,0,0,1,0-.9H320.2a.449.449,0,0,1,0,.9Z" transform="translate(-1.112 -6.522)"/><path class="e" d="M321.672,40.533a.449.449,0,1,1,0-.9h2.83a.449.449,0,1,1,0,.9Z" transform="translate(-6.353 -4.945)"/><path class="e" d="M321.672,51.065a.449.449,0,1,1,0-.9h2.83a.449.449,0,1,1,0,.9Z" transform="translate(-6.353 -8.1)"/><path class="e" d="M321.672,35.267a.449.449,0,1,1,0-.9h2.83a.449.449,0,1,1,0,.9Z" transform="translate(-6.353 -3.367)"/><path class="e" d="M321.672,56.332a.449.449,0,1,1,0-.9h2.83a.449.449,0,1,1,0,.9Z" transform="translate(-6.353 -9.677)"/><path class="e" d="M321.672,66.864a.449.449,0,1,1,0-.9h2.83a.449.449,0,1,1,0,.9Z" transform="translate(-6.353 -12.832)"/><path class="e" d="M321.672,61.6a.449.449,0,1,1,0-.9h2.83a.449.449,0,1,1,0,.9Z" transform="translate(-6.353 -11.255)"/><path class="e" d="M321.672,30a.449.449,0,1,1,0-.9h2.83a.449.449,0,1,1,0,.9Z" transform="translate(-6.353 -1.79)"/><path class="e" d="M321.672,24.735a.449.449,0,1,1,0-.9h2.83a.449.449,0,1,1,0,.9Z" transform="translate(-6.353 -0.212)"/></g></g><g transform="translate(-311 109)"><g transform="translate(1241 301)"><g class="f"><circle class="p" cx="29.5" cy="29.5" r="29.5"/><circle class="m" cx="29.5" cy="29.5" r="29"/></g><g transform="translate(16 16)"><path class="d" d="M22741.932,743.118a2.467,2.467,0,0,1-2.467-2.462V729.127a4.307,4.307,0,0,1-2.463-3.879.619.619,0,0,1,.115-.366c.2-.349,1.508-3,2.348-4.713v-1.7a2.471,2.471,0,0,1,2.467-2.468h17.26a2.468,2.468,0,0,1,2.463,2.468v1.7l2.4,4.8a.667.667,0,0,1,.059.28h0c0,.006,0,.011,0,.017v.017a4.3,4.3,0,0,1-2.463,3.845v11.529a2.463,2.463,0,0,1-2.463,2.462Zm15.408-11.095a.618.618,0,0,1,.617.617v9.249h1.234a1.232,1.232,0,0,0,1.229-1.234V729.5a3.975,3.975,0,0,1-3.119-.748,4.338,4.338,0,0,1-3.656,2.045,4.3,4.3,0,0,0-6.164,0,4.333,4.333,0,0,1-3.656-2.045,4.256,4.256,0,0,1-2.508.811,4.388,4.388,0,0,1-.617-.063v11.158a1.235,1.235,0,0,0,1.232,1.234h8.627v-9.249a.619.619,0,0,1,.617-.617Zm-5.547,9.866h4.932v-8.632h-4.932Zm-.617-13.591a3.048,3.048,0,0,0,5.309-.674v-1.76h-5.309Zm-6.541-.68a3.081,3.081,0,0,0,2.846,1.942,3.05,3.05,0,0,0,2.461-1.263v-2.434h-5.312Zm13.082-.143a3.029,3.029,0,0,0,2.092.851,3.086,3.086,0,0,0,3.016-2.462h-5.117Zm-16.4.851a3.011,3.011,0,0,0,2.084-.851v-1.611h-5.107A3.094,3.094,0,0,0,22741.316,728.327Zm16.287-3.7h4.9l-1.846-3.7h-3.8Zm-6.428,0h5.182l-.754-3.7h-4.428Zm-6.4,0h5.17v-3.7h-4.422Zm-6.141,0h4.9l.736-3.7h-3.8C22739.572,722.757,22739.008,723.905,22738.631,724.631Zm2.068-6.164V719.7h19.721v-1.234a1.232,1.232,0,0,0-1.229-1.234h-17.26A1.235,1.235,0,0,0,22740.7,718.467Zm3.078,19.721a.614.614,0,0,1-.611-.617v-4.93a.618.618,0,0,1,.611-.617h4.932a.619.619,0,0,1,.617.617v4.93a.615.615,0,0,1-.617.617Zm.617-1.228h3.7v-3.7h-3.7Z" transform="translate(-22737 -715.999)"/></g></g></g><g transform="translate(-467 536)"><g transform="translate(935 155)"><g class="f"><circle class="p" cx="29.5" cy="29.5" r="29.5"/><circle class="m" cx="29.5" cy="29.5" r="29"/></g><g transform="translate(15 6.15)"><g transform="translate(0 9.85)"><g transform="translate(0 0)"><path class="d" d="M28.16,33.273h-.408a1.2,1.2,0,0,0,0-.173V11.3a1.211,1.211,0,0,0-1.211-1.211H14.7A1.211,1.211,0,0,0,13.492,11.3v9a4.7,4.7,0,0,0-2.769,1.91,4.755,4.755,0,0,0-.678,3.973c.5,1.91.561,4.444-.471,5.5a2.153,2.153,0,0,1-2.174.408A2.416,2.416,0,0,1,5.58,30.7c-1.1-2.54,1.647-7.344,1.654-7.365.166-.249,3.994-6.2.083-9.691C7.158,13.476,3.386,9.489.472,9.877A.541.541,0,0,0,.61,10.95a3.738,3.738,0,0,1,2.014.45l-.775.934a1.211,1.211,0,0,0,.182,1.7l.026.02,2.6,2.077a1.2,1.2,0,0,0,.755.263h.1a1.2,1.2,0,0,0,.81-.45L7.082,15c2.34,2.99-.692,7.753-.768,7.829-.125.215-3.032,5.3-1.731,8.306A3.461,3.461,0,0,0,7.165,33.1a4.679,4.679,0,0,0,1.066.132,2.817,2.817,0,0,0,2.077-.824c1.384-1.447,1.274-4.4.734-6.486a3.648,3.648,0,0,1,2.437-4.534V33.1a1.2,1.2,0,0,0,0,.173h-.346a1.211,1.211,0,0,0-1.239,1.183c0,.009,0,.019,0,.028v1.82A1.211,1.211,0,0,0,13.1,37.517H28.16a1.211,1.211,0,0,0,1.211-1.211v-1.82A1.211,1.211,0,0,0,28.16,33.273ZM6.286,14.356l-.768.948a.173.173,0,0,1-.118.062.166.166,0,0,1-.125-.035l-2.6-2.077a.173.173,0,0,1,0-.242l.768-.955A.173.173,0,0,1,3.559,12a.166.166,0,0,1,.125.035l2.6,2.077a.166.166,0,0,1,.062.118A.173.173,0,0,1,6.286,14.356Zm8.23-3.06a.173.173,0,0,1,.173-.173H26.554a.173.173,0,0,1,.173.173V33.1a.173.173,0,0,1-.173.173H14.7a.173.173,0,0,1-.186-.159s0-.01,0-.014V11.3ZM28.36,36.305a.173.173,0,0,1-.173.173H13.132a.173.173,0,0,1-.173-.173v-1.82a.173.173,0,0,1,.173-.173H28.16a.173.173,0,0,1,.2.173Z" transform="translate(0 -9.85)"/></g></g><g transform="translate(15.825 12.77)"><g transform="translate(0 0)"><path class="d" d="M191.275,43.6H184.1a1.211,1.211,0,0,0-1.211,1.211v7.178A1.211,1.211,0,0,0,184.1,53.2h7.171a1.211,1.211,0,0,0,1.211-1.211V44.808A1.211,1.211,0,0,0,191.275,43.6Zm.173,8.4a.173.173,0,0,1-.173.166H184.1a.173.173,0,0,1-.173-.173V44.808a.173.173,0,0,1,.173-.173h7.171a.173.173,0,0,1,.173.173Z" transform="translate(-182.892 -43.597)"/></g></g><g transform="translate(17.341 24.33)"><path class="d" d="M206.469,177.2h-5.538a.519.519,0,1,0,0,1.038h5.538a.519.519,0,0,0,0-1.038Z" transform="translate(-200.412 -177.198)"/></g></g></g></g><g transform="translate(236 536)"><g transform="translate(935 155)"><g class="f"><circle class="p" cx="29.5" cy="29.5" r="29.5"/><circle class="m" cx="29.5" cy="29.5" r="29"/></g><g transform="translate(12.999 13)"><path class="d" d="M66.9,200a2.9,2.9,0,1,0,2.9,2.9A2.9,2.9,0,0,0,66.9,200Zm0,4.635a1.738,1.738,0,1,1,1.738-1.738A1.738,1.738,0,0,1,66.9,204.635Zm0,0" transform="translate(-59.365 -186.697)"/><path class="d" d="M226.9,37.793a2.9,2.9,0,1,0-2.9-2.9A2.9,2.9,0,0,0,226.9,37.793Zm0-4.635a1.738,1.738,0,1,1-1.738,1.738A1.738,1.738,0,0,1,226.9,33.159Zm0,0" transform="translate(-209.101 -29.683)"/><path class="d" d="M30.779,16.428V14.579a2.7,2.7,0,0,0-2.363-2.666L22.65,5.383a4.961,4.961,0,0,0,.029-.523,4.86,4.86,0,0,0-9.72,0c0,.086.009.17.013.254l-6.241,6.24A4.848,4.848,0,0,0,3.78,19.811v8.268H.54a.54.54,0,0,0-.54.54v3.24a.54.54,0,0,0,.54.54H21.059a.54.54,0,0,0,.54-.54v-3.24a.54.54,0,0,0-.54-.54H10.26V19.811a4.775,4.775,0,0,0,1.554-4.374l5.73-5.732c.092.005.182.014.275.014a4.849,4.849,0,0,0,.819-.075l6.74,5.312v1.472a2.7,2.7,0,0,0-1.62,2.47v5.4a.54.54,0,0,0,.781.486L26.7,23.7a.54.54,0,0,0,.3-.486v-3.78h2.16v3.78a.54.54,0,0,0,.3.486l2.16,1.08A.54.54,0,0,0,32.4,24.3V18.9A2.7,2.7,0,0,0,30.779,16.428ZM17.819,1.08a3.78,3.78,0,1,1-3.78,3.78A3.78,3.78,0,0,1,17.819,1.08Zm2.7,30.239H1.08v-2.16H20.519ZM9.18,28.079H4.86V20.546a4.806,4.806,0,0,0,4.32,0Zm-2.16-8.1A3.78,3.78,0,1,1,10.8,16.2,3.78,3.78,0,0,1,7.02,19.979Zm4.45-5.724a4.876,4.876,0,0,0-3.331-2.778L13.214,6.4a4.875,4.875,0,0,0,3.049,3.06Zm10.862-7.6,4.779,5.413a2.7,2.7,0,0,0-1.574,1.638L19.885,9.252A4.882,4.882,0,0,0,22.332,6.654Zm4.127,7.925a1.62,1.62,0,0,1,3.24,0V16.2h-3.24Zm4.86,8.846-1.08-.54V18.9a.54.54,0,0,0-.54-.54h-3.24a.54.54,0,0,0-.54.54v3.986l-1.08.54V18.9a1.62,1.62,0,0,1,1.62-1.62H29.7a1.62,1.62,0,0,1,1.62,1.62Zm0,0" transform="translate(-0.001)"/><path class="d" d="M88.579,336a.579.579,0,0,0-.579.579v3.476a.579.579,0,1,0,1.159,0v-3.476A.579.579,0,0,0,88.579,336Zm0,0" transform="translate(-82.075 -313.575)"/><path class="d" d="M154.4,128.261l-2.317,2.317a.579.579,0,1,0,.819.819l2.317-2.317a.579.579,0,0,0-.819-.819Zm0,0" transform="translate(-141.732 -119.522)"/></g></g></g><g transform="translate(-1044 390)"><g transform="translate(1241 301)"><g class="f"><circle class="p" cx="29.5" cy="29.5" r="29.5"/><circle class="m" cx="29.5" cy="29.5" r="29"/></g><g transform="translate(14.002 17)"><path class="d" d="M2.565,9.651a.607.607,0,0,1-.429-.177L.331,7.669A1.133,1.133,0,0,1,.35,6.048a21.987,21.987,0,0,1,30.289,0,1.133,1.133,0,0,1,.018,1.622L29.22,9.106a1.13,1.13,0,0,1-1.582.02,17.686,17.686,0,0,0-24.646.348A.6.6,0,0,1,2.565,9.651ZM1.243,6.869,2.571,8.2a18.9,18.9,0,0,1,25.845,0l1.329-1.328a20.777,20.777,0,0,0-28.5,0Zm0,0"/><path class="d" d="M91.885,109.645a1.126,1.126,0,0,1-.765-.3,11.445,11.445,0,0,0-5.84-2.872.605.605,0,0,1,.2-1.193,12.655,12.655,0,0,1,6.4,3.123l1.329-1.329a14.6,14.6,0,0,0-19.761,0l1.329,1.329a12.719,12.719,0,0,1,5.557-2.95.605.605,0,0,1,.284,1.177,11.5,11.5,0,0,0-5.077,2.716,1.129,1.129,0,0,1-1.567-.034l-1.438-1.437a1.123,1.123,0,0,1-.332-.822,1.142,1.142,0,0,1,.362-.812,15.808,15.808,0,0,1,21.525,0,1.143,1.143,0,0,1,.362.812,1.124,1.124,0,0,1-.332.822l-1.438,1.437A1.132,1.132,0,0,1,91.885,109.645Zm0,0" transform="translate(-67.838 -95.837)"/><path class="d" d="M155.374,209.853a1.138,1.138,0,0,1-.738-.274,5.327,5.327,0,0,0-6.886,0,1.125,1.125,0,0,1-1.533-.058l-1.444-1.443a1.132,1.132,0,0,1,.048-1.649,9.628,9.628,0,0,1,12.745,0,1.132,1.132,0,0,1,.047,1.648l-1.444,1.443A1.121,1.121,0,0,1,155.374,209.853Zm-4.181-2.747a6.54,6.54,0,0,1,4.174,1.505l1.332-1.332a8.417,8.417,0,0,0-11.012,0l1.332,1.332A6.538,6.538,0,0,1,151.193,207.107Zm0,0" transform="translate(-135.699 -191.67)"/><path class="d" d="M202.5,312.926a3.449,3.449,0,1,1,3.45-3.449A3.454,3.454,0,0,1,202.5,312.926Zm0-5.688a2.239,2.239,0,1,0,1.583.655A2.225,2.225,0,0,0,202.5,307.238Zm0,0" transform="translate(-187.007 -287.503)"/><path class="d" d="M240.492,154.164a.605.605,0,1,1,0-1.211h0a.605.605,0,1,1,0,1.211Zm0,0" transform="translate(-225.368 -143.695)"/></g></g></g><g transform="translate(175 -199)"><g transform="translate(861 468)"><g class="f"><circle class="p" cx="29.5" cy="29.5" r="29.5"/><circle class="m" cx="29.5" cy="29.5" r="29"/></g><g transform="translate(-2 13)"><path class="i" d="M22649.5,890a.5.5,0,0,1-.5-.5v-11a.506.506,0,0,1,.256-.438l9-5a.5.5,0,0,1,.238-.063.5.5,0,0,1,.5.5v4.149l8.258-4.587a.518.518,0,0,1,.244-.063.5.5,0,0,1,.5.5v4.149l1.531-.848.467-16.317a.5.5,0,0,1,.5-.484h3.5a.5.5,0,0,1,.5.484l.381,13.346,1.377-.768a.5.5,0,0,1,.74.438v16a.5.5,0,0,1-.5.5Zm17.5-4.5a.5.5,0,0,1,.5.5v3h8.5V874.353l-1.348.746-2.191,1.218-4.719,2.618a.445.445,0,0,1-.238.068.5.5,0,0,1-.5-.5v-4.149l-8.26,4.581a.46.46,0,0,1-.244.068.5.5,0,0,1-.5-.5v-4.149l-8,4.439V889h8.5v-3a.5.5,0,0,1,.5-.5Zm-3.5,3.5h3v-2.5h-3Zm-4,0h3v-2.5h-3Zm11.053-12.771,3.346-1.855-.324-11.377h-2.646Zm.4-14.234h2.584l-.029-1h-2.527Zm-.957,21a.5.5,0,0,1-.5-.5v-2a.5.5,0,0,1,.5-.5h4a.506.506,0,0,1,.5.5v2a.5.5,0,0,1-.5.5Zm.5-1h3v-1h-3Zm-9.5,1a.5.5,0,0,1-.5-.5v-2a.5.5,0,0,1,.5-.5h4a.5.5,0,0,1,.5.5v2a.5.5,0,0,1-.5.5Zm.5-1h3v-1h-3Zm-9.5,1a.5.5,0,0,1-.5-.5v-2a.506.506,0,0,1,.5-.5h4a.5.5,0,0,1,.5.5v2a.5.5,0,0,1-.5.5Zm.5-1h3v-1h-3Z" transform="translate(-22631 -858)"/></g></g></g><g transform="translate(445 -199)"><g transform="translate(861 468)"><g class="f"><circle class="p" cx="29.5" cy="29.5" r="29.5"/><circle class="m" cx="29.5" cy="29.5" r="29"/></g><path class="d" d="M22793.99,1056.734a.976.976,0,0,1-.973-.978v-1.047h-17.08v1.047a.976.976,0,0,1-.967.978h-3a.976.976,0,0,1-.969-.978v-1.539a2.5,2.5,0,0,1-1-2.008v-5.934a2.548,2.548,0,0,1,.457-1.453l1.6-2.26h-2.592a.476.476,0,0,1-.469-.475v-2.026a.472.472,0,0,1,.469-.475h2.5a.477.477,0,0,1,.457.355l.326,1.339,2.307-6.609a2.476,2.476,0,0,1,2.328-1.671h14.186a2.467,2.467,0,0,1,2.328,1.671l2.307,6.609.332-1.339a.47.47,0,0,1,.451-.355h2.506a.472.472,0,0,1,.469.475v2.026a.476.476,0,0,1-.469.475h-2.592l1.6,2.26a2.536,2.536,0,0,1,.459,1.453v5.934a2.5,2.5,0,0,1-1,2.008v1.539a.977.977,0,0,1-.973.978Zm-.035-.978a.033.033,0,0,0,.035.029h3a.033.033,0,0,0,.035-.029v-1.047h-3.068Zm-22.018,0a.027.027,0,0,0,.029.029h3a.032.032,0,0,0,.033-.029v-1.047h-3.066Zm.531-2h24.021a1.537,1.537,0,0,0,1.459-1.076h-26.939A1.53,1.53,0,0,0,22772.469,1053.759Zm14.512-8.1a2.49,2.49,0,0,1,2.473,2.495v3.576h8.57v-5.459a1.576,1.576,0,0,0-.285-.9l-1.992-2.815h-3.262a.475.475,0,0,1,0-.95h2.844l-2.311-6.626a1.544,1.544,0,0,0-1.447-1.036h-14.186a1.536,1.536,0,0,0-1.441,1.036l-2.312,6.626h16.852a.475.475,0,0,1,0,.95h-17.275l-1.984,2.815a1.535,1.535,0,0,0-.287.9v5.459h8.572v-3.576a2.483,2.483,0,0,1,2.467-2.495Zm-6.535,6.071h8.068v-1.076h-8.068Zm0-2.026h8.068v-1.076h-8.068Zm.074-2.026h7.92a1.537,1.537,0,0,0-1.459-1.076h-5.006A1.529,1.529,0,0,0,22780.52,1047.682Zm16.572-6.071h1.934v-1.076h-1.67Zm-27.158,0h1.936l-.27-1.076h-1.666Zm20.584,7.055c0-1.116,1.3-1.991,2.969-1.991s2.977.875,2.977,1.991-1.311,1.991-2.977,1.991S22790.518,1049.782,22790.518,1048.667Zm.938,0c0,.492.869,1.041,2.031,1.041s2.037-.549,2.037-1.041-.869-1.047-2.037-1.047S22791.455,1048.174,22791.455,1048.667Zm-18.957,0c0-1.116,1.3-1.991,2.975-1.991s2.971.875,2.971,1.991-1.3,1.991-2.971,1.991S22772.5,1049.782,22772.5,1048.667Zm.938,0c0,.492.871,1.041,2.037,1.041s2.031-.549,2.031-1.041-.869-1.047-2.031-1.047S22773.436,1048.174,22773.436,1048.667Zm18.551-2.563a.475.475,0,0,1,0-.95h3a.475.475,0,0,1,0,.95Zm-18.018,0a.475.475,0,0,1,0-.95h3a.475.475,0,0,1,0,.95Zm1.121-5.064a.475.475,0,0,1-.439-.635l1.824-5.23a.972.972,0,0,1,.91-.652h14.186a.971.971,0,0,1,.914.652l1.826,5.23a.473.473,0,0,1-.062.435.459.459,0,0,1-.379.2Zm2.266-5.55-1.6,4.6h17.453l-1.609-4.6c0-.011-.012-.017-.027-.017h-14.186A.032.032,0,0,0,22777.355,1035.489Z" transform="translate(-22754.996 -1015.001)"/></g></g><g transform="translate(-178 -193)"><g transform="translate(510.001 462)"><g class="f"><circle class="p" cx="29.5" cy="29.5" r="29.5"/><circle class="m" cx="29.5" cy="29.5" r="29"/></g></g><g transform="translate(491.414 446.531)"><path class="j" d="M51.76,45.537q-8.633-9.6-2.777-14.605c4.111-3.409,13.7-1.829,12.806,2.969-.153.819-.829,1.345-1.622,1.931-2.466,1.819-3.787,2.959-4.808,5.693C54.313,44.328,54.471,46.571,51.76,45.537Z" transform="translate(-3.974 -0.181)"/><path class="e" d="M51.238,45.663q-.338-.374-.679-.774-3.887-4.543-4.477-8.093a6.5,6.5,0,0,1,2.243-6.237c.048-.043.108-.095.178-.156l.006-.006c2.119-1.757,5.595-2.26,8.477-1.724a9.568,9.568,0,0,1,2.457.788,5.555,5.555,0,0,1,1.846,1.391,3.46,3.46,0,0,1,.768,2.95,2.523,2.523,0,0,1-.687,1.282,7.984,7.984,0,0,1-1.113.934h0a18.744,18.744,0,0,0-2.876,2.441A9.112,9.112,0,0,0,55.607,41.5c-.215.575-.382,1.143-.534,1.66-.138.467-.263.892-.4,1.258-.544,1.425-1.271,2.12-3.256,1.363l-.1-.039-.074-.082Zm.017-1.37q.273.319.588.672c1.2.424,1.64-.006,1.97-.869.133-.348.251-.75.381-1.189.154-.525.324-1.1.555-1.722A9.985,9.985,0,0,1,56.7,37.85a19.451,19.451,0,0,1,3.014-2.565h0a7.431,7.431,0,0,0,.991-.823,1.641,1.641,0,0,0,.454-.823,2.581,2.581,0,0,0-.574-2.2,4.649,4.649,0,0,0-1.542-1.155,8.683,8.683,0,0,0-2.22-.709c-2.649-.493-5.821-.049-7.727,1.53h0l-.155.137a5.64,5.64,0,0,0-1.952,5.408Q47.534,39.944,51.255,44.293Z" transform="translate(-3.793 0)"/><path class="k" d="M50.576,49.349q-3.993,12.275-11.26,9.708c-5.007-1.856-8.433-10.949-3.831-12.575a3.41,3.41,0,0,1,2.483.439c2.808,1.226,4.455,1.8,7.334,1.317C48.253,47.742,50.117,46.484,50.576,49.349Z" transform="translate(-0.208 -5.072)"/><path class="e" d="M50.831,49.309q-.162.5-.33.974-1.99,5.637-4.77,7.923a6.5,6.5,0,0,1-6.524,1.177c-.076-.024-.151-.049-.224-.076h-.005c-2.584-.958-4.758-3.717-5.735-6.481A9.593,9.593,0,0,1,32.7,50.3a5.54,5.54,0,0,1,.282-2.293,3.466,3.466,0,0,1,2.172-2.144,2.518,2.518,0,0,1,1.451-.046,7.991,7.991,0,0,1,1.367.5,18.749,18.749,0,0,0,3.551,1.27,9.108,9.108,0,0,0,3.525.014c.621-.1,1.188-.242,1.7-.366.468-.113.9-.216,1.291-.28,1.5-.242,2.469.04,2.806,2.139l.017.11-.034.1Zm-1.195.669q.146-.415.288-.847c-.23-1.247-.826-1.416-1.74-1.27-.359.058-.77.157-1.219.266-.539.13-1.132.274-1.769.381a9.977,9.977,0,0,1-3.863-.021,19.509,19.509,0,0,1-3.73-1.327,7.346,7.346,0,0,0-1.206-.445,1.653,1.653,0,0,0-.942.018,2.577,2.577,0,0,0-1.616,1.595,4.645,4.645,0,0,0-.229,1.915,8.67,8.67,0,0,0,.5,2.278c.9,2.54,2.867,5.065,5.186,5.925l.2.067A5.64,5.64,0,0,0,45.149,57.5Q47.729,55.377,49.636,49.978Z" transform="translate(-0.027 -4.891)"/><path class="k" d="M53.9,47.879q12.626-2.679,14.037,4.9c.9,5.265-5.266,12.778-8.975,9.606a3.415,3.415,0,0,1-.861-2.37c-.343-3.044-.669-4.758-2.527-7.01C53.668,50.7,51.646,49.71,53.9,47.879Z" transform="translate(-5.756 -5.3)"/><path class="e" d="M53.6,47.251q6.437-1.366,10.068-.1a6.553,6.553,0,0,1,4.514,5.363l0,.008c.462,2.713-.841,5.976-2.746,8.2a9.6,9.6,0,0,1-1.911,1.733,5.564,5.564,0,0,1-2.128.9,3.464,3.464,0,0,1-2.941-.81,2.527,2.527,0,0,1-.766-1.236,8,8,0,0,1-.252-1.432,18.75,18.75,0,0,0-.676-3.711,9.1,9.1,0,0,0-1.749-3.058c-.391-.474-.8-.9-1.17-1.292-.33-.348-.632-.664-.887-.978-.961-1.183-1.2-2.159.448-3.5l.087-.071.107-.022Zm9.766.765q-3.357-1.172-9.467.109c-.965.823-.814,1.423-.231,2.14.227.28.52.587.841.923.377.4.791.831,1.213,1.343a9.955,9.955,0,0,1,1.914,3.357,19.5,19.5,0,0,1,.715,3.894,7.34,7.34,0,0,0,.216,1.266,1.648,1.648,0,0,0,.486.8,2.579,2.579,0,0,0,2.191.6h0a4.651,4.651,0,0,0,1.77-.759,8.679,8.679,0,0,0,1.724-1.568c1.752-2.048,2.954-5.017,2.538-7.457h0A5.692,5.692,0,0,0,63.371,48.016Z" transform="translate(-5.558 -5.119)"/><path class="e" d="M53.741,51.99A3.291,3.291,0,1,0,50.45,48.7,3.3,3.3,0,0,0,53.741,51.99Z" transform="translate(-5.06 -4.798)"/><path class="h" d="M53.56,44.766a3.75,3.75,0,1,1-2.653,1.1,3.739,3.739,0,0,1,2.653-1.1Zm2,1.749a2.832,2.832,0,1,0,.829,2A2.822,2.822,0,0,0,55.562,46.515Z" transform="translate(-4.879 -4.616)"/><path class="e" d="M54.782,30.364a.458.458,0,1,1,.366-.84,17.994,17.994,0,0,1,5.068,2.948,13.392,13.392,0,0,1,3.3,5.164,17.077,17.077,0,0,1,.945,3.176,17.4,17.4,0,0,1,.318,3.317.459.459,0,1,1-.919,0,16.461,16.461,0,0,0-.3-3.144,16.074,16.074,0,0,0-.894-3,12.542,12.542,0,0,0-3.063-4.83,17.217,17.217,0,0,0-4.817-2.787Zm4.762,24.5a.457.457,0,0,1,.715.571,12.909,12.909,0,0,1-5.308,4.079,15.588,15.588,0,0,1-12.539,0,.458.458,0,1,1,.366-.84,14.675,14.675,0,0,0,11.806,0,11.942,11.942,0,0,0,4.96-3.81Zm-24.255-4.5a.457.457,0,1,1-.811.423,18.736,18.736,0,0,1-1.337-3.2,11.882,11.882,0,0,1-.555-3.459,17.34,17.34,0,0,1,.319-3.317,17.074,17.074,0,0,1,.944-3.176,16.866,16.866,0,0,1,1.475-2.823,16.624,16.624,0,0,1,1.971-2.484.459.459,0,0,1,.661.636,15.7,15.7,0,0,0-1.864,2.347A16.058,16.058,0,0,0,33.8,40.985a16.461,16.461,0,0,0-.3,3.144,10.966,10.966,0,0,0,.512,3.194A17.807,17.807,0,0,0,35.289,50.363Z" transform="translate(0 -0.288)"/></g></g><g transform="translate(61 269)"><g class="f"><circle class="p" cx="29.5" cy="29.5" r="29.5"/><circle class="m" cx="29.5" cy="29.5" r="29"/></g><g transform="translate(-270.346 -233.926)"><path class="e" d="M289.185,250.857h22.923a1.256,1.256,0,0,1,1.017.654,2.943,2.943,0,0,1,.422,1.574v10.831a2.943,2.943,0,0,1-.422,1.574,1.256,1.256,0,0,1-1.017.654H289.185a1.255,1.255,0,0,1-1.017-.654,2.943,2.943,0,0,1-.423-1.574V253.085a2.943,2.943,0,0,1,.423-1.574,1.256,1.256,0,0,1,1.017-.654Zm22.923,1.282H289.185a.532.532,0,0,0-.431.279,1.245,1.245,0,0,0-.18.667v10.831a1.248,1.248,0,0,0,.18.668.533.533,0,0,0,.431.278h22.923a.534.534,0,0,0,.431-.278,1.248,1.248,0,0,0,.18-.668V253.085a1.244,1.244,0,0,0-.18-.667A.533.533,0,0,0,312.108,252.139Z"/><path class="h" d="M318.338,248.6l-23.136.171c-5.028.037-6.347.129-7.216.053s-2.252.794-1.962,3.487q2.411,2,3.6,2.987c1.493,1.238,1.061.566,1.672,3.172.312,1.33.571,2.393.766,3.175.539,2.162.872,1.591,2.421,1.591h18.04c3.264,0,2.958-.585,3.785-3.485q1.788-6.27,2.586-9.01C319.638,248.15,319.879,248.59,318.338,248.6Z" transform="translate(-2.999)"/><path class="e" d="M318.512,249.24l-23.392.171c-2.178.015-3.671.041-4.734.06-1.426.025-2.084.037-2.591-.007a1.01,1.01,0,0,0-.308.023,1.379,1.379,0,0,0-.806.533,2.465,2.465,0,0,0-.423,1.393,4.891,4.891,0,0,0,.006.507l3.444,2.825c.22.181.374.3.5.4a2.513,2.513,0,0,1,.8.819,4.241,4.241,0,0,1,.336,1.151c.064.3.146.7.255,1.153.1.415.236.986.4,1.64.155.636.279,1.136.377,1.522.322,1.281.54,1.262,1.2,1.206.238-.02.515-.043.821-.043h18.239c2.578,0,2.678-.374,3.135-2.1.086-.322.181-.681.27-.99.761-2.643,1.519-5.242,2.085-7.186l.529-1.823c.151-.52.286-.931.389-1.246l.012-.035c-.144.009-.319.017-.54.019Zm-23.4-1.107,23.392-.17c.218,0,.414-.013.573-.023.575-.034.851-.05,1,.522a2.332,2.332,0,0,1-.217,1.33c-.1.293-.222.676-.371,1.191-.131.45-.18.615-.533,1.828-.476,1.633-1.113,3.819-2.081,7.181-.118.408-.195.7-.263.955-.639,2.407-.779,2.93-3.986,2.93H294.393c-.311,0-.557.021-.768.039-1.169.1-1.557.133-2.109-2.057-.117-.466-.247-.986-.38-1.532-.081-.332-.208-.861-.4-1.656-.128-.54-.205-.907-.265-1.192a3.917,3.917,0,0,0-.19-.746,2.117,2.117,0,0,0-.516-.468c-.151-.119-.331-.261-.516-.413l-3.831-3.142-.033-.3a7.031,7.031,0,0,1-.038-1.069,3.957,3.957,0,0,1,.708-2.244,2.234,2.234,0,0,1,1.294-.875,1.69,1.69,0,0,1,.5-.032c.5.043,1.136.032,2.526.007,1.06-.018,2.55-.045,4.741-.061Zm24.073.871c.036-.031.055-.043.039-.1C319.182,248.726,319.2,248.86,319.189,249Z" transform="translate(-3)"/><path class="e" d="M304.443,264.862h7.989v4.54H303.8v-4.54Zm6.707,1.282h-6.066v1.976h6.066Z" transform="translate(-11.117)"/><rect class="l" width="7.347" height="1.056" transform="translate(293.254 265.503)"/><path class="e" d="M304.443,264.862h7.988V267.2H303.8v-2.337Z" transform="translate(-11.117)"/><rect class="m" width="8.981" height="8.073" transform="translate(292.53 268.761)"/><path class="e" d="M303.627,268.12h9.621v9.356H302.986V268.12Zm8.339,1.282h-7.7v6.792h7.7Z" transform="translate(-11.021)"/><path class="n" d="M284.57,271.082h19.057V276.2c-7.321,0-14.041.085-19.057,1.86Z"/></g></g><g transform="translate(175 82)"><g transform="translate(861 468)"><g class="f"><circle class="p" cx="29.5" cy="29.5" r="29.5"/><circle class="m" cx="29.5" cy="29.5" r="29"/></g><path class="d" d="M22775.125,705.6l.605-.893a15.118,15.118,0,0,0,21.1-20.85l.9-.6a16.2,16.2,0,0,1-22.6,22.337Zm-3.322.635v-3.778a.541.541,0,0,1,.539-.54h3.779V703h-3.238v3.238Zm11.244-2.162a.539.539,0,0,1-.48-.288l-.824-1.572c-.172-.04-.336-.084-.5-.129l-1.521.957a.537.537,0,0,1-.506.035,12.28,12.28,0,0,1-2.127-1.2.541.541,0,0,1-.229-.466l.094-1.755q-.179-.171-.352-.342l-1.809.089a.564.564,0,0,1-.463-.218,11.828,11.828,0,0,1-1.234-2.083.538.538,0,0,1,.041-.526l.971-1.468q-.073-.245-.135-.491l-1.363-.8a.542.542,0,0,1-.268-.466v-2.291a.542.542,0,0,1,.268-.466l1.363-.8c.041-.164.086-.327.135-.486l-.971-1.473a.538.538,0,0,1-.041-.526,12.01,12.01,0,0,1,1.234-2.083.578.578,0,0,1,.463-.218l1.809.089c.115-.114.232-.228.352-.337l-.094-1.76a.547.547,0,0,1,.229-.466,12.28,12.28,0,0,1,2.127-1.2.524.524,0,0,1,.506.04l1.521.952c.164-.045.334-.089.5-.129l.824-1.572a.538.538,0,0,1,.48-.288h2.34a.541.541,0,0,1,.482.288l.822,1.572c.17.04.338.084.506.129l1.518-.952a.526.526,0,0,1,.506-.04,12.54,12.54,0,0,1,2.127,1.2.548.548,0,0,1,.229.471l-.094,1.755c.123.109.238.223.352.337l1.811-.089a.563.563,0,0,1,.459.218,12.02,12.02,0,0,1,1.236,2.083.538.538,0,0,1-.041.526l-.971,1.473c.049.159.094.322.133.486l1.369.808a.531.531,0,0,1,.262.461v2.291a.539.539,0,0,1-.262.466l-1.369.8c-.039.164-.084.327-.133.491l.971,1.473a.528.528,0,0,1,.041.521,11.838,11.838,0,0,1-1.236,2.083.549.549,0,0,1-.459.218l-1.811-.089c-.113.114-.229.228-.352.342l.094,1.755a.546.546,0,0,1-.229.466,12.242,12.242,0,0,1-2.131,1.2.531.531,0,0,1-.5-.035l-1.518-.957c-.168.045-.336.089-.506.129l-.822,1.572a.542.542,0,0,1-.482.288Zm-1.725-3.094a8.663,8.663,0,0,0,.893.233.539.539,0,0,1,.367.278l.789,1.507h1.7l.787-1.507a.543.543,0,0,1,.367-.278,7.561,7.561,0,0,0,.893-.233.553.553,0,0,1,.451.059l1.477.932a10.5,10.5,0,0,0,1.439-.813l-.09-1.706a.53.53,0,0,1,.184-.431c.223-.2.441-.412.645-.63a.564.564,0,0,1,.422-.174l1.766.084a11.139,11.139,0,0,0,.826-1.388l-.945-1.428a.534.534,0,0,1-.061-.466c.09-.283.168-.575.232-.873a.55.55,0,0,1,.254-.347l1.3-.764v-1.671l-1.3-.769a.538.538,0,0,1-.254-.347c-.064-.293-.143-.585-.232-.868a.53.53,0,0,1,.061-.466l.945-1.433a11.51,11.51,0,0,0-.826-1.388l-1.766.084a.541.541,0,0,1-.422-.169,8.633,8.633,0,0,0-.645-.63.543.543,0,0,1-.184-.431l.09-1.711a11.056,11.056,0,0,0-1.439-.813l-1.477.932a.553.553,0,0,1-.451.06c-.287-.089-.586-.169-.893-.233a.543.543,0,0,1-.367-.278l-.787-1.5h-1.7l-.789,1.5a.539.539,0,0,1-.367.278c-.3.064-.605.144-.893.233a.556.556,0,0,1-.451-.06l-1.479-.932a11.432,11.432,0,0,0-1.437.813l.09,1.711a.556.556,0,0,1-.184.431c-.223.2-.436.407-.645.63a.528.528,0,0,1-.422.169l-1.766-.084a11,11,0,0,0-.822,1.388l.943,1.433a.539.539,0,0,1,.063.466,8.745,8.745,0,0,0-.238.868.529.529,0,0,1-.252.347l-1.3.769v1.671l1.3.764a.541.541,0,0,1,.252.347,8.485,8.485,0,0,0,.238.873.541.541,0,0,1-.062.466l-.949,1.428a11.4,11.4,0,0,0,.828,1.388l1.766-.084a.546.546,0,0,1,.422.174c.209.218.422.431.645.625a.556.556,0,0,1,.184.431l-.09,1.711a10.6,10.6,0,0,0,1.438.813l1.479-.932a.544.544,0,0,1,.291-.083A.554.554,0,0,1,22781.322,700.978Zm-13.3-8.781a16.193,16.193,0,0,1,25.285-13.4l-.6.893a15.118,15.118,0,0,0-21,21l-.895.6A16.059,16.059,0,0,1,22768.025,692.2Zm8.1,0a8.1,8.1,0,1,1,8.1,8.1A8.1,8.1,0,0,1,22776.121,692.2Zm1.08,0a7.019,7.019,0,1,0,7.018-7.016A7.017,7.017,0,0,0,22777.2,692.2Zm15.113-9.718V681.4h3.238V678.16h1.08v3.783a.537.537,0,0,1-.541.536Z" transform="translate(-22755.025 -663)"/></g></g><g transform="translate(445 82)"><g transform="translate(861 468)"><g class="f"><circle class="p" cx="29.5" cy="29.5" r="29.5"/><circle class="m" cx="29.5" cy="29.5" r="29"/></g><g transform="translate(15 16)"><path class="d" d="M218.264,277.336a4.928,4.928,0,1,0,4.928,4.928A4.927,4.927,0,0,0,218.264,277.336Zm0,8.87a3.942,3.942,0,1,1,3.942-3.942A3.942,3.942,0,0,1,218.264,286.206Zm0,0" transform="translate(-203.48 -264.524)"/><path class="d" d="M309.825,236.146a.493.493,0,0,0,.493-.493v-.493a.493.493,0,0,0-.986,0v.493A.493.493,0,0,0,309.825,236.146Zm0,0" transform="translate(-295.042 -223.827)"/><path class="d" d="M400.21,275.543l-.348.348a.493.493,0,1,0,.685.709l.012-.012.349-.348a.493.493,0,0,0-.7-.7Zm0,0" transform="translate(-381.245 -262.681)"/><path class="d" d="M438.321,373.328h-.493a.493.493,0,0,0,0,.986h.493a.493.493,0,0,0,0-.986Zm0,0" transform="translate(-417.132 -356.081)"/><path class="d" d="M400.809,464.107a.493.493,0,0,0-.7.7l.348.348a.493.493,0,0,0,.7-.7Zm0,0" transform="translate(-381.496 -442.535)"/><path class="d" d="M309.825,501.332a.493.493,0,0,0-.493.493v.493a.493.493,0,1,0,.986,0v-.493A.493.493,0,0,0,309.825,501.332Zm0,0" transform="translate(-295.042 -478.172)"/><path class="d" d="M211.775,464.12l-.348.349a.493.493,0,0,0,.7.7l.348-.349a.493.493,0,0,0-.7-.7Zm0,0" transform="translate(-201.521 -442.548)"/><path class="d" d="M171.65,373.328h-.493a.493.493,0,0,0,0,.986h.493a.493.493,0,0,0,0-.986Zm0,0" transform="translate(-162.78 -356.081)"/><path class="d" d="M211.771,276.473a.493.493,0,0,0,.7-.7l-.348-.348a.493.493,0,1,0-.7.7Zm0,0" transform="translate(-201.517 -262.566)"/><path class="d" d="M28.088,12.319A1.478,1.478,0,0,0,26.61,13.8v.493h-4.2a8.417,8.417,0,0,0-4.176-4.176V6.406a.493.493,0,0,0-.493-.493h-.986V2.957h5.913a1.478,1.478,0,1,0,0-2.957H6.9a1.478,1.478,0,0,0,0,2.957h5.913V5.913h-.986a.493.493,0,0,0-.493.493v3.709a8.417,8.417,0,0,0-4.176,4.176h-4.2V13.8A1.478,1.478,0,0,0,0,13.8v7.884a1.478,1.478,0,1,0,2.957,0v-.493h4.2a8.363,8.363,0,0,0,15.25,0h4.2v.493a1.478,1.478,0,1,0,2.957,0V13.8A1.478,1.478,0,0,0,28.088,12.319ZM6.406,1.478A.493.493,0,0,1,6.9.985H22.667a.493.493,0,1,1,0,.985H6.9A.493.493,0,0,1,6.406,1.478ZM13.8,2.957h1.971V5.913H13.8ZM12.319,6.9h4.928V9.734a8.368,8.368,0,0,0-4.928,0ZM1.971,21.682a.493.493,0,1,1-.985,0V13.8a.493.493,0,1,1,.985,0ZM2.957,20.2V15.276h3.82a8.368,8.368,0,0,0,0,4.928Zm11.827,4.928a7.392,7.392,0,1,1,7.392-7.392A7.392,7.392,0,0,1,14.783,25.131ZM22.789,20.2a8.368,8.368,0,0,0,0-4.928h3.82V20.2Zm5.792,1.478a.493.493,0,1,1-.985,0V13.8a.493.493,0,1,1,.985,0Zm0,0"/></g></g></g><g transform="translate(-178 88)"><g transform="translate(510.001 462)"><g class="f"><circle class="p" cx="29.5" cy="29.5" r="29.5"/><circle class="m" cx="29.5" cy="29.5" r="29"/></g><g transform="translate(11.251 11.25)"><path class="o" d="M94.893,59.646h2.714a.528.528,0,0,0,.528-.528V56.4a.528.528,0,0,0-.528-.528H94.893a.528.528,0,0,0-.528.528v2.714A.528.528,0,0,0,94.893,59.646Zm.528-2.714h1.659V58.59H95.421Z" transform="translate(-85.587 -46.565)"/><path class="o" d="M94.893,59.646h2.714a.528.528,0,0,0,.528-.528V56.4a.528.528,0,0,0-.528-.528H94.893a.528.528,0,0,0-.528.528v2.714A.528.528,0,0,0,94.893,59.646Zm.528-2.714h1.659V58.59H95.421Z" transform="translate(-85.587 -41.565)"/><path class="o" d="M94.893,59.646h2.714a.528.528,0,0,0,.528-.528V56.4a.528.528,0,0,0-.528-.528H94.893a.528.528,0,0,0-.528.528v2.714A.528.528,0,0,0,94.893,59.646Zm.528-2.714h1.659V58.59H95.421Z" transform="translate(-77.587 -46.565)"/><path class="o" d="M94.893,59.646h2.714a.528.528,0,0,0,.528-.528V56.4a.528.528,0,0,0-.528-.528H94.893a.528.528,0,0,0-.528.528v2.714A.528.528,0,0,0,94.893,59.646Zm.528-2.714h1.659V58.59H95.421Z" transform="translate(-77.587 -41.565)"/><path class="d" d="M32.08,11.787h-8.76V6.974h.644a.41.41,0,0,0,.41-.41V5.16a.41.41,0,0,0-.41-.41H5.16a.41.41,0,0,0-.41.41v1.4a.41.41,0,0,0,.41.41H5.8V32.08a.41.41,0,0,0,.41.41H31.027a.41.41,0,0,0,.41-.41V14.011h.644a.41.41,0,0,0,.41-.41V12.2a.41.41,0,0,0-.41-.41ZM5.569,5.569H23.555v.585H5.569Zm6.594,26.1V24.648h4.8v7.023Zm8.681,0H17.781V24.238a.41.41,0,0,0-.41-.41H11.753a.41.41,0,0,0-.41.41v7.432H6.623V6.974H22.5v24.7Zm9.773,0h-7.3V14.011h7.3Zm1.053-18.479h-8.35v-.585h8.35Z" transform="translate(0)"/><path class="d" d="M15.778,90.375a.528.528,0,0,0-.528.528v2.187a.528.528,0,1,0,1.056,0V90.9A.528.528,0,0,0,15.778,90.375Z" transform="translate(-7.333 -66.158)"/></g></g></g><g transform="translate(61 550)"><g class="f"><circle class="p" cx="29.5" cy="29.5" r="29.5"/><circle class="m" cx="29.5" cy="29.5" r="29"/></g><path class="d" d="M30.779,16.428V14.579a2.7,2.7,0,0,0-2.363-2.666L22.65,5.383a4.961,4.961,0,0,0,.029-.523,4.86,4.86,0,0,0-9.72,0c0,.086.009.17.013.254l-6.241,6.24A4.848,4.848,0,0,0,3.78,19.811v8.268H.54a.54.54,0,0,0-.54.54v3.24a.54.54,0,0,0,.54.54H21.059a.54.54,0,0,0,.54-.54v-3.24a.54.54,0,0,0-.54-.54H10.26V19.811a4.775,4.775,0,0,0,1.554-4.374l5.73-5.732c.092.005.182.014.275.014a4.849,4.849,0,0,0,.819-.075l6.74,5.312v1.472a2.7,2.7,0,0,0-1.62,2.47v5.4a.54.54,0,0,0,.781.486L26.7,23.7a.54.54,0,0,0,.3-.486v-3.78h2.16v3.78a.54.54,0,0,0,.3.486l2.16,1.08A.54.54,0,0,0,32.4,24.3V18.9A2.7,2.7,0,0,0,30.779,16.428ZM17.819,1.08a3.78,3.78,0,1,1-3.78,3.78A3.78,3.78,0,0,1,17.819,1.08Zm2.7,30.239H1.08v-2.16H20.519ZM9.18,28.079H4.86V20.546a4.806,4.806,0,0,0,4.32,0Zm-2.16-8.1A3.78,3.78,0,1,1,10.8,16.2,3.78,3.78,0,0,1,7.02,19.979Zm4.45-5.724a4.876,4.876,0,0,0-3.331-2.778L13.214,6.4a4.875,4.875,0,0,0,3.049,3.06Zm10.862-7.6,4.779,5.413a2.7,2.7,0,0,0-1.574,1.638L19.885,9.252A4.882,4.882,0,0,0,22.332,6.654Zm4.127,7.925a1.62,1.62,0,0,1,3.24,0V16.2h-3.24Zm4.86,8.846-1.08-.54V18.9a.54.54,0,0,0-.54-.54h-3.24a.54.54,0,0,0-.54.54v3.986l-1.08.54V18.9a1.62,1.62,0,0,1,1.62-1.62H29.7a1.62,1.62,0,0,1,1.62,1.62Zm0,0" transform="translate(13 13)"/></g></g></g></g></g></svg>