<svg xmlns="http://www.w3.org/2000/svg" width="36.001" height="33.007" viewBox="0 0 36.001 33.007"><defs><style>.a{fill:#fff;}.a,.b{stroke:rgba(0,0,0,0);stroke-miterlimit:10;}.b{fill:#d6ed29;}</style></defs><g transform="translate(-89.5 -18.492)"><path class="a" d="M-776.192,68.007a1.378,1.378,0,0,1-1.369-1.414,1.361,1.361,0,0,1,1.368-1.4,1.452,1.452,0,0,1,1.428,1.425,1.477,1.477,0,0,1-1.418,1.391Zm7.368,0a1.476,1.476,0,0,1-1.413-1.4,1.454,1.454,0,0,1,1.443-1.41,1.361,1.361,0,0,1,1.354,1.416,1.378,1.378,0,0,1-1.378,1.4Zm-8.167-6.555a2.468,2.468,0,0,1-1.481-2.562,2.463,2.463,0,0,1,2.319-2.129,2.358,2.358,0,0,1,2.032.96,2.041,2.041,0,0,0,2.4.765,1.651,1.651,0,0,0,.952-.679,2.348,2.348,0,0,1,2.8-.887,2.41,2.41,0,0,1,1.608,2.385,2.445,2.445,0,0,1-1.925,2.3,3.056,3.056,0,0,1-.481.031,2.292,2.292,0,0,1-1.958-.954,2.07,2.07,0,0,0-2.205-.8,1.859,1.859,0,0,0-1.171.751,2.312,2.312,0,0,1-1.926,1.028A2.441,2.441,0,0,1-776.99,61.452Zm-7.305-2.243a1.843,1.843,0,0,1,1.905-1.9,1.935,1.935,0,0,1,1.924,1.88,2.013,2.013,0,0,1-1.919,1.965h-.026A1.94,1.94,0,0,1-784.3,59.209Zm19.759,0a1.937,1.937,0,0,1,1.945-1.906,1.844,1.844,0,0,1,1.888,1.923,1.936,1.936,0,0,1-1.886,1.92h-.019A2.011,2.011,0,0,1-764.536,59.212Zm-17.885-5.289a1.932,1.932,0,0,1-1.873-1.982,1.86,1.86,0,0,1,1.92-1.861,1.935,1.935,0,0,1,1.9,1.909,2,2,0,0,1-1.92,1.934Zm19.805,0A1.989,1.989,0,0,1-764.529,52a1.932,1.932,0,0,1,1.939-1.919,1.86,1.86,0,0,1,1.885,1.9,1.93,1.93,0,0,1-1.889,1.945Zm-26.01-.553A1.351,1.351,0,0,1-790,51.979a1.415,1.415,0,0,1,1.392-1.4,1.458,1.458,0,0,1,1.4,1.414,1.406,1.406,0,0,1-1.418,1.375Zm32.23,0a1.407,1.407,0,0,1-1.4-1.4,1.464,1.464,0,0,1,1.421-1.393A1.416,1.416,0,0,1-755,52a1.351,1.351,0,0,1-1.388,1.368ZM-776.8,47.077a2.483,2.483,0,0,1-1.678-2.3,2.46,2.46,0,0,1,1.664-2.309,2.41,2.41,0,0,1,2.679.806,2.087,2.087,0,0,0,2.5.757,1.547,1.547,0,0,0,.872-.639,2.373,2.373,0,0,1,2.929-.86,2.45,2.45,0,0,1,1.412,2.81,2.416,2.416,0,0,1-2.393,1.847,2.3,2.3,0,0,1-1.915-.984,2.066,2.066,0,0,0-2.17-.781,1.874,1.874,0,0,0-1.208.778,2.272,2.272,0,0,1-1.909,1A2.5,2.5,0,0,1-776.8,47.077Zm-7.491-2.335a1.889,1.889,0,0,1,1.909-1.89,1.932,1.932,0,0,1,1.9,1.917,1.964,1.964,0,0,1-1.907,1.924h-.017A1.927,1.927,0,0,1-784.294,44.743Zm21.683,1.951a1.963,1.963,0,0,1-1.909-1.923,1.935,1.935,0,0,1,1.951-1.918,1.887,1.887,0,0,1,1.864,1.936,1.921,1.921,0,0,1-1.892,1.905Zm-7.586-9.328A1.383,1.383,0,0,1-768.826,36a1.373,1.373,0,0,1,1.383,1.4,1.391,1.391,0,0,1-1.367,1.374h-.01A1.4,1.4,0,0,1-770.2,37.366Zm-7.359,0A1.372,1.372,0,0,1-776.148,36a1.378,1.378,0,0,1,1.344,1.392,1.385,1.385,0,0,1-1.365,1.376h-.016A1.385,1.385,0,0,1-777.557,37.371Z" transform="translate(880 -17.008)"/><path class="b" d="M251.641,280.19a2.294,2.294,0,0,1-1.924-.965,2.068,2.068,0,0,0-2.208-.792,1.861,1.861,0,0,0-1.169.755,2.333,2.333,0,0,1-2.9.815,2.436,2.436,0,0,1,.873-4.676,2.323,2.323,0,0,1,1.991.941,2.045,2.045,0,0,0,2.492.753,1.528,1.528,0,0,0,.87-.638,2.364,2.364,0,0,1,2.753-.922,2.454,2.454,0,0,1,1.665,2.4,2.483,2.483,0,0,1-1.933,2.3A3.682,3.682,0,0,1,251.641,280.19Z" transform="translate(-140.442 -242.786)"/></g></svg>