<svg xmlns="http://www.w3.org/2000/svg" xmlns:xlink="http://www.w3.org/1999/xlink" width="30" height="32" viewBox="0 0 30 32"><defs><style>.a{fill:none;}.b{clip-path:url(#a);}.c{clip-path:url(#b);}.d{fill:#fff;}</style><clipPath id="a"><path class="a" d="M15-32q.737,0,1.471.073h0V-9.56h1.714v-4.412h1.357L23.315-9.56h2.176l-4.521-5.249,4.459-4.684H23.263l-3.712,3.974H18.185V-29.492A14.939,14.939,0,0,1,30-14.916,14.958,14.958,0,0,1,15,0,14.988,14.988,0,0,1,6.765-2.449h0v-8.659a4.4,4.4,0,0,0,3.522,1.537,4.976,4.976,0,0,0,4.994-5.176,4.976,4.976,0,0,0-4.994-5.175,4.4,4.4,0,0,0-3.522,1.537h0v-1.328H5.051V-5.927A14.839,14.839,0,0,1,0-17.084,14.958,14.958,0,0,1,15-32ZM10.088-18.312a3.4,3.4,0,0,1,3.427,3.565,3.394,3.394,0,0,1-3.427,3.576,3.389,3.389,0,0,1-3.428-3.576A3.386,3.386,0,0,1,10.088-18.312Z"/></clipPath><clipPath id="b"><path class="a" d="M-30,2522H1410V-51H-30Z"/></clipPath></defs><g class="b" transform="translate(0 32)"><g class="c"><path class="d" d="M-5-37H35V5H-5Z"/></g></g></svg>